<svg width="14" height="25" viewBox="0 0 14 25" fill="none" xmlns="http://www.w3.org/2000/svg">
<path d="M6.07438 25H7.95454V22.6464C11.8595 22.302 14 19.6039 14 16.8197C14 12.7727 10.8471 11.9977 7.95454 11.3088V5.10907C9.34297 5.4535 10.1529 6.5155 10.2686 7.66361H13.7975C13.5372 4.42021 11.281 2.61194 7.95454 2.32492V0H6.07438V2.35362C2.4876 2.66935 0 4.87945 0 8.09415C0 12.1412 3.18182 12.9449 6.07438 13.6625V19.977C4.45455 19.69 3.64463 18.628 3.52893 17.1929H0C0 20.4363 2.54545 22.3594 6.07438 22.6751V25ZM10.6736 16.992C10.6736 18.4845 9.69008 19.69 7.95454 19.977V14.1504C9.51653 14.6383 10.6736 15.3559 10.6736 16.992ZM3.35537 7.92193C3.35537 6.17107 4.48347 5.22388 6.07438 5.02296V10.8209C4.5124 10.333 3.35537 9.58668 3.35537 7.92193Z" fill="#EA3F68"/>
</svg>
